Coordinates
version=1
nRows=32
nColumns=38
inDegrees=no

Units are S.I. units (second, meters, Newtons, ...)
If the header above contains a line with 'inDegrees', this indicates whether rotational values are in degrees (yes) or radians (no).

endheader
time	pelvis_tilt	pelvis_list	pelvis_rotation	pelvis_tx	pelvis_ty	pelvis_tz	hip_flexion_r	hip_adduction_r	hip_rotation_r	knee_angle_r	ankle_angle_r	subtalar_angle_r	mtp_angle_r	hip_flexion_l	hip_adduction_l	hip_rotation_l	knee_angle_l	ankle_angle_l	subtalar_angle_l	mtp_angle_l	lumbar_extension	lumbar_bending	lumbar_rotation	arm_flex_r	arm_add_r	arm_rot_r	elbow_flex_r	pro_sup_r	wrist_flex_r	wrist_dev_r	arm_flex_l	arm_add_l	arm_rot_l	elbow_flex_l	pro_sup_l	wrist_flex_l	wrist_dev_l
55	2.71446	1.52909	-1.01209	0.634852	0.368577	1.0679	0.0895157	-0.0667301	-0.210532	0.313688	-0.302513	0	0	0.0241891	-0.205009	-0.265604	0.259197	-0.280611	0	0	-0.154632	0.026577	-0.167355	1.00655	-0.0326272	-1.39431	0	0	0	0	0.251596	-0.44762	-0.00369537	1.1333	0.814672	0	0
55.01	2.74821	1.52866	-1.04687	0.635102	0.369584	1.06802	0.086757	-0.0669724	-0.207866	0.312681	-0.301246	0	0	0.0202825	-0.203573	-0.265343	0.256449	-0.28107	0	0	-0.147687	0.0265297	-0.16895	1.00492	-0.0296291	-1.37139	0	0	0	0	0.245722	-0.448119	-0.00644187	1.13322	0.813902	0	0
55.02	2.77498	1.52872	-1.07459	0.63534	0.370436	1.06807	0.0849515	-0.0673158	-0.204994	0.311821	-0.299998	0	0	0.0174558	-0.202037	-0.264881	0.25426	-0.281214	0	0	-0.14084	0.0269971	-0.171884	1.00428	-0.0250721	-1.33879	0	0	0	0	0.238933	-0.449171	-0.0104415	1.13353	0.813211	0	0
55.03	2.79123	1.52982	-1.09265	0.635714	0.371304	1.06794	0.0848486	-0.067665	-0.200847	0.311532	-0.298782	0	0	0.0154522	-0.200609	-0.265786	0.252031	-0.281333	0	0	-0.132849	0.0277281	-0.1755	1.00399	-0.0184249	-1.29171	0	0	0	0	0.230323	-0.450622	-0.0162443	1.13411	0.812455	0	0
55.04	2.80929	1.53126	-1.11284	0.63619	0.372289	1.06773	0.0853589	-0.0682283	-0.196738	0.31194	-0.297916	0	0	0.0136862	-0.199355	-0.26806	0.250179	-0.281719	0	0	-0.124145	0.0285272	-0.18019	1.00376	-0.00921552	-1.22279	0	0	0	0	0.220213	-0.452673	-0.0230659	1.13423	0.812339	0	0
55.05	2.82266	1.5344	-1.12774	0.636878	0.374339	1.06729	0.0854812	-0.0688255	-0.194519	0.311222	-0.297702	0	0	0.0117528	-0.198291	-0.270706	0.247782	-0.282703	0	0	-0.114916	0.0290465	-0.191223	1.0287	-0.0299371	-1.13038	0	0	0	0	0.19504	-0.458225	-0.0371244	1.12788	0.81268	0	0
55.06	2.82632	1.53642	-1.13152	0.637006	0.375086	1.0674	0.0865197	-0.0694215	-0.192979	0.310745	-0.297816	0	0	0.0124678	-0.197132	-0.270705	0.246557	-0.283804	0	0	-0.103993	0.0270696	-0.195194	1.00392	0.00604615	-0.995914	0	0	0	0	0.188241	-0.458542	-0.0404308	1.12524	0.814125	0	0
55.07	2.86376	1.53169	-1.16903	0.636733	0.375438	1.0678	0.0806787	-0.0691197	-0.194327	0.310512	-0.297775	0	0	0.00657411	-0.197965	-0.27413	0.246811	-0.283059	0	0	-0.108936	0.0299026	-0.192202	1.02746	-0.0307372	-1.13074	0	0	0	0	0.189408	-0.457422	-0.0391004	1.12926	0.812574	0	0
55.08	2.87916	1.52545	-1.18321	0.635951	0.374489	1.06879	0.0755267	-0.068408	-0.195691	0.310858	-0.297939	0	0	0.00249891	-0.198928	-0.274612	0.247245	-0.282699	0	0	-0.112344	0.0301683	-0.18172	0.998956	-0.00860568	-1.22129	0	0	0	0	0.209118	-0.451085	-0.0268596	1.1371	0.811847	0	0
55.09	2.8931	1.52307	-1.1958	0.635633	0.374502	1.06911	0.0728706	-0.0686349	-0.197256	0.311461	-0.298039	0	0	0.000373505	-0.199127	-0.274241	0.247276	-0.282657	0	0	-0.112937	0.029065	-0.177405	0.996323	-0.0168848	-1.28946	0	0	0	0	0.213418	-0.449106	-0.0216557	1.13873	0.810891	0	0
55.1	2.90135	1.52183	-1.20321	0.635445	0.374512	1.06926	0.0715024	-0.0688733	-0.198061	0.311973	-0.298046	0	0	-0.00068627	-0.19924	-0.274064	0.247408	-0.282604	0	0	-0.11205	0.0279077	-0.173601	0.993827	-0.0231201	-1.33481	0	0	0	0	0.216757	-0.447748	-0.016773	1.13966	0.81055	0	0
55.11	2.90741	1.5213	-1.20884	0.635377	0.374479	1.06931	0.0711366	-0.0691627	-0.198011	0.312777	-0.297888	0	0	-0.000993167	-0.199247	-0.274099	0.247749	-0.282411	0	0	-0.110747	0.0268969	-0.170546	0.992222	-0.0277303	-1.36454	0	0	0	0	0.219212	-0.446948	-0.0128632	1.14038	0.810345	0	0
55.12	2.9109	1.52118	-1.21213	0.635393	0.374354	1.06928	0.0715414	-0.0693946	-0.197565	0.314022	-0.297503	0	0	-0.00074492	-0.199299	-0.274075	0.24822	-0.282147	0	0	-0.109451	0.026123	-0.168388	0.991064	-0.0305172	-1.38312	0	0	0	0	0.220958	-0.446745	-0.00985826	1.14098	0.810159	0	0
55.13	2.91218	1.52156	-1.21335	0.635467	0.374149	1.06919	0.0726132	-0.0695976	-0.196578	0.315202	-0.296828	0	0	8.34227e-05	-0.199222	-0.273853	0.2485	-0.282147	0	0	-0.108147	0.025525	-0.166877	0.990459	-0.0322298	-1.39455	0	0	0	0	0.222333	-0.447095	-0.0072901	1.14146	0.809992	0	0
55.14	2.91132	1.52229	-1.21257	0.635568	0.373869	1.06904	0.0742707	-0.069788	-0.195448	0.316444	-0.29606	0	0	0.0011771	-0.199019	-0.273429	0.248218	-0.282889	0	0	-0.10706	0.0251941	-0.165884	0.990533	-0.0332346	-1.40154	0	0	0	0	0.223154	-0.447632	-0.00569273	1.14241	0.809405	0	0
55.15	2.90867	1.52345	-1.21003	0.635686	0.373566	1.06881	0.076416	-0.0700605	-0.194386	0.317647	-0.29524	0	0	0.00265006	-0.198783	-0.273067	0.247985	-0.283465	0	0	-0.105955	0.024937	-0.165275	0.991005	-0.0338664	-1.40645	0	0	0	0	0.223447	-0.448365	-0.00476789	1.14386	0.808702	0	0
55.16	2.90631	1.52491	-1.20764	0.635799	0.373228	1.06851	0.0790114	-0.0706154	-0.193911	0.319299	-0.294312	0	0	0.00448765	-0.198463	-0.272895	0.248049	-0.283314	0	0	-0.104803	0.0246969	-0.164937	0.9917	-0.0344226	-1.41091	0	0	0	0	0.223596	-0.449053	-0.00416305	1.14533	0.807898	0	0
55.17	2.90893	1.52688	-1.2098	0.635887	0.372962	1.06813	0.0822991	-0.0718935	-0.194965	0.322118	-0.292149	0	0	0.00686391	-0.197792	-0.272724	0.24845	-0.282272	0	0	-0.103222	0.0240431	-0.165592	0.992246	-0.0341112	-1.41166	0	0	0	0	0.222936	-0.450204	-0.00406779	1.14723	0.806175	0	0
55.18	2.89676	1.52688	-1.19705	0.635774	0.372501	1.06822	0.0827989	-0.0715065	-0.195803	0.321889	-0.293012	0	0	0.0073096	-0.198004	-0.271797	0.247539	-0.282982	0	0	-0.104458	0.0251037	-0.166016	0.993541	-0.0340395	-1.40928	0	0	0	0	0.223767	-0.450231	-0.00402311	1.14799	0.806033	0	0
55.19	2.8926	1.52665	-1.19191	0.635602	0.372077	1.06832	0.0826719	-0.0714732	-0.197409	0.321336	-0.29376	0	0	0.00760274	-0.198131	-0.271126	0.247042	-0.283516	0	0	-0.106098	0.0257643	-0.166675	0.994532	-0.0339349	-1.40716	0	0	0	0	0.224841	-0.45029	-0.00372362	1.14854	0.805798	0	0
55.2	2.88753	1.52681	-1.18586	0.635431	0.371642	1.06836	0.0833591	-0.0716353	-0.198697	0.321674	-0.293403	0	0	0.00850762	-0.198289	-0.271097	0.247011	-0.283264	0	0	-0.107337	0.0262466	-0.166603	0.995223	-0.0347129	-1.40808	0	0	0	0	0.226811	-0.450022	-0.00234037	1.14811	0.806079	0	0
55.21	2.88581	1.5266	-1.18304	0.635254	0.371137	1.0684	0.0835127	-0.0717735	-0.200104	0.321489	-0.294043	0	0	0.00904541	-0.19836	-0.270775	0.246729	-0.283828	0	0	-0.109797	0.026921	-0.16728	0.996873	-0.0349977	-1.4075	0	0	0	0	0.228292	-0.450353	-0.00165716	1.14872	0.805688	0	0
55.22	2.88402	1.52641	-1.18019	0.635124	0.370579	1.06842	0.0840074	-0.0719275	-0.201278	0.32174	-0.294587	0	0	0.00974714	-0.198457	-0.270541	0.24657	-0.284441	0	0	-0.112614	0.0275251	-0.167702	0.998741	-0.0355889	-1.40901	0	0	0	0	0.230219	-0.450766	-0.000773508	1.14933	0.805493	0	0
55.23	2.88273	1.52642	-1.17797	0.635066	0.369945	1.06839	0.0850446	-0.0721533	-0.202108	0.322523	-0.294957	0	0	0.010784	-0.198503	-0.270299	0.246643	-0.284955	0	0	-0.115507	0.0277576	-0.167929	1.00049	-0.0360009	-1.41063	0	0	0	0	0.232446	-0.451269	0.00017029	1.1499	0.805492	0	0
55.24	2.88162	1.52679	-1.17607	0.635041	0.369235	1.06831	0.0867925	-0.0725247	-0.202611	0.323815	-0.295142	0	0	0.0123244	-0.198427	-0.270024	0.246901	-0.285324	0	0	-0.118351	0.0277241	-0.168035	1.00227	-0.0362044	-1.41171	0	0	0	0	0.234957	-0.45177	0.00103166	1.15029	0.805454	0	0
55.25	2.87356	1.52835	-1.16754	0.635088	0.368467	1.06804	0.0908687	-0.0732418	-0.202577	0.327356	-0.292714	0	0	0.0158728	-0.198531	-0.270884	0.248857	-0.284651	0	0	-0.120312	0.0274757	-0.168365	1.00424	-0.0357993	-1.41103	0	0	0	0	0.236726	-0.452603	0.00115764	1.15121	0.804964	0	0
55.26	2.8629	1.52986	-1.1564	0.63517	0.367676	1.06774	0.0947364	-0.0737236	-0.201965	0.330203	-0.291456	0	0	0.0195167	-0.198807	-0.271659	0.250807	-0.284186	0	0	-0.122336	0.0272095	-0.168563	1.00613	-0.0354162	-1.4098	0	0	0	0	0.238955	-0.453455	0.00172254	1.15138	0.804504	0	0
55.27	2.84959	1.53163	-1.14249	0.63527	0.366853	1.06737	0.0990882	-0.0742376	-0.201136	0.333409	-0.290096	0	0	0.0238339	-0.199174	-0.27235	0.253272	-0.283716	0	0	-0.12431	0.0266566	-0.169059	1.00803	-0.0348125	-1.4089	0	0	0	0	0.24102	-0.454547	0.00204887	1.15186	0.803981	0	0
55.28	2.84555	1.53213	-1.13747	0.635352	0.36599	1.06713	0.101336	-0.074471	-0.20064	0.334753	-0.292216	0	0	0.0261723	-0.199428	-0.271711	0.253872	-0.284944	0	0	-0.127762	0.0263765	-0.169221	1.01016	-0.0348328	-1.40906	0	0	0	0	0.244559	-0.455461	0.00361992	1.15111	0.803845	0	0
55.29	2.82623	1.5338	-1.1173	0.635483	0.365117	1.0667	0.106224	-0.0749418	-0.199957	0.338907	-0.290846	0	0	0.0307259	-0.200176	-0.272441	0.256612	-0.284519	0	0	-0.130139	0.0261248	-0.17	1.01225	-0.033975	-1.40937	0	0	0	0	0.246883	-0.456686	0.00396794	1.1514	0.80342	0	0
55.3	2.80686	1.5331	-1.09606	0.635303	0.364261	1.06669	0.107975	-0.0746681	-0.201633	0.34176	-0.290249	0	0	0.0329743	-0.201666	-0.272893	0.258939	-0.284166	0	0	-0.135335	0.0273573	-0.171335	1.01479	-0.0339676	-1.41378	0	0	0	0	0.250058	-0.457103	0.00445531	1.15132	0.803018	0	0
55.31	2.79847	1.53195	-1.08543	0.635115	0.363415	1.06669	0.109371	-0.0746976	-0.204108	0.345249	-0.289708	0	0	0.0344851	-0.202966	-0.273668	0.260933	-0.283807	0	0	-0.141175	0.0282736	-0.173062	1.01768	-0.0339413	-1.41492	0	0	0	0	0.253376	-0.457656	0.00481698	1.15111	0.803152	0	0
